<svg width="16" height="20" viewBox="0 0 16 20" fill="none" xmlns="http://www.w3.org/2000/svg">
<path d="M8 13C8.55229 13 9 12.5523 9 12C9 11.4477 8.55229 11 8 11C7.44772 11 7 11.4477 7 12C7 12.5523 7.44772 13 8 13Z" fill="black"/>
<path fill-rule="evenodd" clip-rule="evenodd" d="M15.6947 12.3527C15.8546 10.0912 14.4891 8.0946 12.5 7.33061V4C12.5 1.79086 10.7091 1.19209e-07 8.5 1.19209e-07L7.5 0C5.29086 -1.19209e-07 3.5 1.79086 3.5 4L3.5 7.33054C1.51082 8.09449 0.145279 10.0911 0.305185 12.3527L0.517307 15.3527C0.702421 17.9707 2.88028 20 5.50485 20H10.495C13.1196 20 15.2974 17.9707 15.4825 15.3527L15.6947 12.3527ZM10.5 4L10.5 7H5.5V4C5.5 2.89543 6.39543 2 7.5 2H8.5C9.60457 2 10.5 2.89543 10.5 4ZM5.29273 9C3.55256 9 2.17747 10.4758 2.3002 12.2116L2.51233 15.2116C2.62339 16.7824 3.93011 18 5.50485 18H10.495C12.0697 18 13.3764 16.7824 13.4875 15.2116L13.6996 12.2116C13.8224 10.4758 12.4473 9 10.7071 9H5.29273Z" fill="black"/>
</svg>
